<svg width="333" height="167" viewBox="0 0 333 167" fill="none" xmlns="http://www.w3.org/2000/svg">
<rect width="333" height="166" transform="translate(0 0.55542)" fill="black"/>
<path d="M73.3513 81.3483H85.4443V85.0665H73.3513V81.3483ZM73.6988 91.7733H87.425V95.561H69.1813V71.236H86.9385V75.0238H73.6988V91.7733ZM96.741 95.561L88.7833 77.0045H93.3008L100.147 93.3718H97.9225L105.012 77.0045H109.182L101.224 95.561H96.741ZM120.11 95.8043C118.048 95.8043 116.241 95.3989 114.689 94.588C113.16 93.754 111.967 92.6189 111.109 91.1825C110.275 89.7462 109.858 88.113 109.858 86.2828C109.858 84.4295 110.264 82.7962 111.075 81.383C111.909 79.9467 113.044 78.8231 114.48 78.0123C115.94 77.2015 117.596 76.796 119.449 76.796C121.256 76.796 122.866 77.1899 124.28 77.9775C125.693 78.7652 126.805 79.8772 127.616 81.3135C128.426 82.7499 128.832 84.441 128.832 86.387C128.832 86.5724 128.82 86.7809 128.797 87.0125C128.797 87.2442 128.786 87.4643 128.762 87.6728H113.299V84.7885H126.469L124.766 85.692C124.789 84.6264 124.569 83.6881 124.106 82.8773C123.643 82.0665 123.005 81.4294 122.195 80.966C121.407 80.5027 120.492 80.271 119.449 80.271C118.384 80.271 117.445 80.5027 116.635 80.966C115.847 81.4294 115.221 82.078 114.758 82.912C114.318 83.7229 114.098 84.6843 114.098 85.7963V86.4913C114.098 87.6033 114.353 88.5879 114.862 89.445C115.372 90.3022 116.09 90.9625 117.017 91.4258C117.944 91.8891 119.009 92.1208 120.214 92.1208C121.256 92.1208 122.195 91.9586 123.029 91.6343C123.863 91.31 124.604 90.8003 125.253 90.1053L127.581 92.781C126.747 93.754 125.693 94.507 124.419 95.0398C123.168 95.5495 121.731 95.8043 120.11 95.8043ZM143.534 76.796C145.016 76.796 146.337 77.0856 147.495 77.6648C148.677 78.244 149.603 79.1359 150.275 80.3405C150.947 81.522 151.283 83.051 151.283 84.9275V95.561H146.939V85.4835C146.939 83.8387 146.545 82.6109 145.758 81.8C144.993 80.9892 143.916 80.5838 142.526 80.5838C141.506 80.5838 140.603 80.7923 139.815 81.2093C139.028 81.6263 138.414 82.2518 137.974 83.0858C137.557 83.8966 137.348 84.9275 137.348 86.1785V95.561H133.004V77.0045H137.14V82.0085L136.41 80.4795C137.058 79.298 137.997 78.3945 139.225 77.769C140.476 77.1204 141.912 76.796 143.534 76.796ZM163.778 95.8043C161.739 95.8043 160.164 95.283 159.052 94.2405C157.94 93.1749 157.384 91.6111 157.384 89.5493V72.904H161.728V89.445C161.728 90.3254 161.948 91.0088 162.388 91.4953C162.851 91.9818 163.488 92.225 164.299 92.225C165.272 92.225 166.083 91.9702 166.732 91.4605L167.948 94.5533C167.438 94.9703 166.813 95.283 166.071 95.4915C165.33 95.7 164.566 95.8043 163.778 95.8043ZM154.326 80.6185V77.1435H166.697V80.6185H154.326ZM171.938 95.561V71.236H181.946C184.101 71.236 185.942 71.5835 187.471 72.2785C189.024 72.9735 190.217 73.9697 191.051 75.267C191.885 76.5644 192.302 78.105 192.302 79.8888C192.302 81.6726 191.885 83.2132 191.051 84.5105C190.217 85.8079 189.024 86.804 187.471 87.499C185.942 88.194 184.101 88.5415 181.946 88.5415H174.44L176.456 86.4218V95.561H171.938ZM176.456 86.9083L174.44 84.719H181.738C183.73 84.719 185.224 84.302 186.22 83.468C187.24 82.6109 187.749 81.4178 187.749 79.8888C187.749 78.3366 187.24 77.1435 186.22 76.3095C185.224 75.4755 183.73 75.0585 181.738 75.0585H174.44L176.456 72.8345V86.9083ZM204.589 95.8043C203.013 95.8043 201.623 95.5147 200.419 94.9355C199.214 94.3332 198.276 93.4297 197.604 92.225C196.932 90.9972 196.596 89.4566 196.596 87.6033V77.0045H200.94V87.0125C200.94 88.6805 201.311 89.9315 202.052 90.7655C202.816 91.5764 203.894 91.9818 205.284 91.9818C206.303 91.9818 207.183 91.7733 207.925 91.3563C208.689 90.9393 209.28 90.3138 209.697 89.4798C210.137 88.6458 210.357 87.6149 210.357 86.387V77.0045H214.701V95.561H210.566V90.557L211.295 92.086C210.67 93.2907 209.755 94.2174 208.55 94.866C207.346 95.4915 206.025 95.8043 204.589 95.8043ZM220.388 95.561V69.7765H224.732V95.561H220.388ZM236.167 95.8043C234.615 95.8043 233.121 95.6074 231.684 95.2135C230.271 94.7965 229.147 94.2985 228.313 93.7193L229.981 90.418C230.815 90.9509 231.812 91.391 232.97 91.7385C234.128 92.086 235.287 92.2598 236.445 92.2598C237.812 92.2598 238.796 92.0745 239.399 91.7038C240.024 91.3331 240.337 90.835 240.337 90.2095C240.337 89.6999 240.128 89.3176 239.711 89.0628C239.294 88.7848 238.75 88.5763 238.078 88.4373C237.406 88.2983 236.653 88.1709 235.819 88.055C235.009 87.9392 234.186 87.7886 233.352 87.6033C232.541 87.3948 231.8 87.1052 231.128 86.7345C230.456 86.3407 229.912 85.8195 229.495 85.1708C229.078 84.5221 228.869 83.665 228.869 82.5993C228.869 81.4178 229.205 80.3985 229.877 79.5413C230.549 78.661 231.487 77.9891 232.692 77.5258C233.92 77.0393 235.368 76.796 237.036 76.796C238.287 76.796 239.549 76.935 240.823 77.213C242.098 77.491 243.152 77.8849 243.986 78.3945L242.318 81.6958C241.437 81.163 240.545 80.8039 239.642 80.6185C238.762 80.41 237.881 80.3058 237.001 80.3058C235.68 80.3058 234.696 80.5027 234.047 80.8965C233.422 81.2904 233.109 81.7885 233.109 82.3908C233.109 82.9468 233.317 83.3638 233.734 83.6418C234.151 83.9198 234.696 84.1399 235.368 84.302C236.04 84.4642 236.781 84.6032 237.592 84.719C238.426 84.8117 239.248 84.9623 240.059 85.1708C240.87 85.3793 241.611 85.6689 242.283 86.0395C242.978 86.387 243.534 86.8851 243.951 87.5338C244.368 88.1825 244.576 89.028 244.576 90.0705C244.576 91.2289 244.229 92.2366 243.534 93.0938C242.862 93.951 241.901 94.6228 240.65 95.1093C239.399 95.5726 237.904 95.8043 236.167 95.8043ZM257.04 95.8043C254.978 95.8043 253.171 95.3989 251.619 94.588C250.09 93.754 248.896 92.6189 248.039 91.1825C247.205 89.7462 246.788 88.113 246.788 86.2828C246.788 84.4295 247.194 82.7962 248.005 81.383C248.839 79.9467 249.974 78.8231 251.41 78.0123C252.87 77.2015 254.526 76.796 256.379 76.796C258.186 76.796 259.796 77.1899 261.21 77.9775C262.623 78.7652 263.735 79.8772 264.546 81.3135C265.356 82.7499 265.762 84.441 265.762 86.387C265.762 86.5724 265.75 86.7809 265.727 87.0125C265.727 87.2442 265.715 87.4643 265.692 87.6728H250.229V84.7885H263.399L261.696 85.692C261.719 84.6264 261.499 83.6881 261.036 82.8773C260.572 82.0665 259.935 81.4294 259.125 80.966C258.337 80.5027 257.422 80.271 256.379 80.271C255.314 80.271 254.375 80.5027 253.565 80.966C252.777 81.4294 252.151 82.078 251.688 82.912C251.248 83.7229 251.028 84.6843 251.028 85.7963V86.4913C251.028 87.6033 251.283 88.5879 251.792 89.445C252.302 90.3022 253.02 90.9625 253.947 91.4258C254.873 91.8891 255.939 92.1208 257.144 92.1208C258.186 92.1208 259.125 91.9586 259.959 91.6343C260.793 91.31 261.534 90.8003 262.183 90.1053L264.511 92.781C263.677 93.754 262.623 94.507 261.349 95.0398C260.098 95.5495 258.661 95.8043 257.04 95.8043Z" fill="#D06363"/>
</svg>
