<svg width="33" height="25" viewBox="0 0 33 25" fill="none" xmlns="http://www.w3.org/2000/svg">
<g clip-path="url(#clip0_56_1458)">
<path d="M0 1.875C0 1.28797 0.475734 0.8125 1.0625 0.8125H12.4375C13.0219 0.8125 13.5 1.28797 13.5 1.875C13.5 2.46203 13.0219 2.9375 12.4375 2.9375H1.0625C0.475734 2.9375 0 2.46203 0 1.875ZM0 12.5C0 11.9156 0.475734 11.4375 1.0625 11.4375H9.9375C10.5219 11.4375 11 11.9156 11 12.5C11 13.0844 10.5219 13.5625 9.9375 13.5625H1.0625C0.475734 13.5625 0 13.0844 0 12.5ZM19.9375 24.1875H1.0625C0.475734 24.1875 0 23.7094 0 23.125C0 22.5406 0.475734 22.0625 1.0625 22.0625H19.9375C20.5219 22.0625 21 22.5406 21 23.125C21 23.7094 20.5219 24.1875 19.9375 24.1875Z" fill="white"/>
<path d="M31.2912 20.867L26.5618 15.4007C27.7627 14.1299 28.4943 12.4733 28.6284 10.6168C28.9443 6.24554 25.6573 2.44762 21.2872 2.13181C16.9171 1.81599 13.1522 5.10544 12.8364 9.47554C12.5206 13.8457 15.8072 17.6447 20.1434 17.9581C21.9996 18.0922 23.7489 17.5719 25.1749 16.5992L29.9044 22.0655C30.1044 22.2612 30.334 22.3658 30.566 22.3825C30.7981 22.3993 31.0396 22.3271 31.231 22.1617C31.6117 21.8309 31.6535 21.2527 31.2912 20.867ZM14.6625 9.6075C14.9051 6.25128 17.8332 3.71784 21.1894 3.96038C24.5457 4.20293 27.0791 7.13106 26.8366 10.4873C26.594 13.8435 23.6659 16.377 20.3097 16.1344C16.9534 15.8919 14.42 12.963 14.6625 9.6075Z" fill="white"/>
</g>
<defs>
<clipPath id="clip0_56_1458">
<rect width="33" height="25" fill="white"/>
</clipPath>
</defs>
</svg>
