<svg width="58" height="71" viewBox="0 0 58 71" fill="none" xmlns="http://www.w3.org/2000/svg">
<mask id="path-1-inside-1_61_1488" fill="white">
<path fill-rule="evenodd" clip-rule="evenodd" d="M0.865196 60.9072H26.9233C43.5794 60.9072 57.0819 47.4047 57.0819 30.7485C57.0819 14.0924 43.5795 0.589844 26.9233 0.589844H0.865196V60.9072Z"/>
</mask>
<path d="M0.865196 60.9072H-1.1348V62.9072H0.865196V60.9072ZM0.865196 0.589844V-1.41016H-1.1348V0.589844H0.865196ZM26.9233 58.9072H0.865196V62.9072H26.9233V58.9072ZM55.0819 30.7485C55.0819 46.3002 42.4749 58.9072 26.9233 58.9072V62.9072C44.684 62.9072 59.0819 48.5093 59.0819 30.7485H55.0819ZM26.9233 2.58984C42.4749 2.58984 55.0819 15.1969 55.0819 30.7485H59.0819C59.0819 12.9878 44.684 -1.41016 26.9233 -1.41016V2.58984ZM0.865196 2.58984H26.9233V-1.41016H0.865196V2.58984ZM-1.1348 0.589844V60.9072H2.8652V0.589844H-1.1348Z" fill="#D06363" mask="url(#path-1-inside-1_61_1488)"/>
<mask id="path-3-inside-2_61_1488" fill="white">
<path fill-rule="evenodd" clip-rule="evenodd" d="M0.865141 30.7485H10.738C17.0487 30.7485 22.1644 25.6327 22.1644 19.3221C22.1644 13.0115 17.0487 7.89568 10.7381 7.89568H0.865141V30.7485Z"/>
</mask>
<path d="M0.865141 30.7485H-1.13486V32.7485H0.865141V30.7485ZM0.865141 7.89568V5.89568H-1.13486V7.89568H0.865141ZM10.738 28.7485H0.865141V32.7485H10.738V28.7485ZM20.1644 19.3221C20.1644 24.5281 15.9441 28.7485 10.738 28.7485V32.7485C18.1532 32.7485 24.1644 26.7373 24.1644 19.3221H20.1644ZM10.7381 9.89568C15.9441 9.89568 20.1644 14.116 20.1644 19.3221H24.1644C24.1644 11.9069 18.1533 5.89568 10.7381 5.89568V9.89568ZM0.865141 9.89568H10.7381V5.89568H0.865141V9.89568ZM-1.13486 7.89568V30.7485H2.86514V7.89568H-1.13486Z" fill="#D06363" mask="url(#path-3-inside-2_61_1488)"/>
<mask id="path-5-inside-3_61_1488" fill="white">
<path fill-rule="evenodd" clip-rule="evenodd" d="M0.865244 53.6013H15.4498C21.7604 53.6013 26.8762 48.4855 26.8762 42.1749C26.8762 35.8642 21.7604 30.7485 15.4498 30.7485H0.865244V53.6013Z"/>
</mask>
<path d="M0.865244 53.6013H-1.13476V55.6013H0.865244V53.6013ZM0.865244 30.7485V28.7485H-1.13476V30.7485H0.865244ZM15.4498 51.6013H0.865244V55.6013H15.4498V51.6013ZM24.8762 42.1749C24.8762 47.3809 20.6558 51.6013 15.4498 51.6013V55.6013C22.865 55.6013 28.8762 49.5901 28.8762 42.1749H24.8762ZM15.4498 32.7485C20.6558 32.7485 24.8762 36.9688 24.8762 42.1749H28.8762C28.8762 34.7597 22.865 28.7485 15.4498 28.7485V32.7485ZM0.865244 32.7485H15.4498V28.7485H0.865244V32.7485ZM-1.13476 30.7485V53.6013H2.86524V30.7485H-1.13476Z" fill="#D06363" mask="url(#path-5-inside-3_61_1488)"/>
<path d="M0.864401 62.9088H5.5954V63.7927H3.73738V68.7529H2.71424V63.7927H0.864401V62.9088ZM6.14195 62.9088H7.07505V65.0778H7.09142C7.20601 64.8868 7.37517 64.7286 7.5989 64.6031C7.82808 64.4721 8.08182 64.4066 8.36011 64.4066C8.82394 64.4066 9.18954 64.5267 9.45692 64.7668C9.7243 65.0069 9.85799 65.367 9.85799 65.8472V68.7529H8.92489V66.0928C8.91397 65.7599 8.84303 65.5198 8.71207 65.3725C8.58111 65.2197 8.37648 65.1433 8.09819 65.1433C7.93994 65.1433 7.79807 65.1733 7.67256 65.2333C7.54706 65.2879 7.44065 65.367 7.35334 65.4707C7.26604 65.5689 7.19783 65.6862 7.14872 65.8227C7.0996 65.9591 7.07505 66.1037 7.07505 66.2565V68.7529H6.14195V62.9088ZM13.7477 66.2647C13.7368 66.1173 13.7041 65.9754 13.6495 65.839C13.6004 65.7026 13.5294 65.5853 13.4367 65.4871C13.3494 65.3834 13.2402 65.3015 13.1093 65.2415C12.9838 65.176 12.8419 65.1433 12.6836 65.1433C12.5199 65.1433 12.3699 65.1733 12.2335 65.2333C12.1025 65.2879 11.9879 65.367 11.8897 65.4707C11.7969 65.5689 11.7205 65.6862 11.6605 65.8227C11.6059 65.9591 11.5759 66.1064 11.5705 66.2647H13.7477ZM11.5705 66.8785C11.5705 67.0422 11.5923 67.2005 11.6359 67.3533C11.6851 67.5061 11.756 67.6398 11.8488 67.7543C11.9415 67.8689 12.0588 67.9617 12.2007 68.0326C12.3426 68.0981 12.5118 68.1309 12.7082 68.1309C12.981 68.1309 13.1993 68.0736 13.363 67.959C13.5322 67.8389 13.6577 67.6616 13.7395 67.4269H14.6235C14.5744 67.6561 14.4898 67.8608 14.3698 68.0408C14.2497 68.2209 14.1051 68.3737 13.936 68.4992C13.7668 68.6192 13.5758 68.7093 13.363 68.7693C13.1557 68.8348 12.9374 68.8675 12.7082 68.8675C12.3753 68.8675 12.0807 68.813 11.8242 68.7038C11.5677 68.5947 11.3495 68.4419 11.1694 68.2455C10.9948 68.049 10.8611 67.8144 10.7683 67.5415C10.681 67.2687 10.6374 66.9686 10.6374 66.6412C10.6374 66.341 10.6837 66.0573 10.7765 65.7899C10.8747 65.5171 11.0112 65.2797 11.1858 65.0778C11.3658 64.8705 11.5814 64.7068 11.8324 64.5867C12.0834 64.4667 12.3672 64.4066 12.6836 64.4066C13.0165 64.4066 13.3139 64.4776 13.5758 64.6194C13.8432 64.7559 14.0642 64.9387 14.2388 65.1678C14.4134 65.397 14.5389 65.6617 14.6153 65.9618C14.6972 66.2565 14.719 66.562 14.6808 66.8785H11.5705ZM17.7992 62.9088H20.222C20.6695 62.9088 21.0569 62.9852 21.3843 63.1379C21.7117 63.2907 21.9791 63.5008 22.1864 63.7682C22.3938 64.0301 22.5466 64.3384 22.6448 64.6931C22.7485 65.0478 22.8003 65.427 22.8003 65.8308C22.8003 66.2346 22.7485 66.6139 22.6448 66.9686C22.5466 67.3233 22.3938 67.6343 22.1864 67.9017C21.9791 68.1636 21.7117 68.371 21.3843 68.5237C21.0569 68.6765 20.6695 68.7529 20.222 68.7529H17.7992V62.9088ZM18.8224 67.918H19.8291C20.2275 67.918 20.5521 67.8662 20.8032 67.7625C21.0596 67.6534 21.2588 67.5061 21.4007 67.3205C21.548 67.1295 21.6462 66.9086 21.6953 66.6575C21.7499 66.4011 21.7772 66.1255 21.7772 65.8308C21.7772 65.5362 21.7499 65.2633 21.6953 65.0123C21.6462 64.7559 21.548 64.5349 21.4007 64.3493C21.2588 64.1584 21.0596 64.011 20.8032 63.9073C20.5521 63.7982 20.2275 63.7436 19.8291 63.7436H18.8224V67.918ZM27.1194 67.8116C27.1194 67.9262 27.1331 68.0081 27.1604 68.0572C27.1931 68.1063 27.2531 68.1309 27.3404 68.1309C27.3677 68.1309 27.4005 68.1309 27.4387 68.1309C27.4769 68.1309 27.5205 68.1254 27.5696 68.1145V68.7611C27.5369 68.772 27.4932 68.7829 27.4387 68.7939C27.3895 68.8102 27.3377 68.8239 27.2831 68.8348C27.2286 68.8457 27.174 68.8539 27.1194 68.8593C27.0649 68.8648 27.0185 68.8675 26.9803 68.8675C26.7893 68.8675 26.6311 68.8293 26.5056 68.7529C26.3801 68.6765 26.2982 68.5428 26.26 68.3519C26.0745 68.5319 25.8453 68.6629 25.5725 68.7447C25.3051 68.8266 25.0459 68.8675 24.7949 68.8675C24.6039 68.8675 24.4211 68.8402 24.2465 68.7857C24.0718 68.7366 23.9163 68.6629 23.7799 68.5647C23.649 68.461 23.5425 68.3328 23.4607 68.18C23.3843 68.0217 23.3461 67.8389 23.3461 67.6316C23.3461 67.3696 23.3925 67.1568 23.4852 66.9931C23.5835 66.8294 23.709 66.7012 23.8618 66.6084C24.02 66.5157 24.1946 66.4502 24.3856 66.412C24.5821 66.3683 24.7785 66.3356 24.9749 66.3138C25.1441 66.281 25.3051 66.2592 25.4579 66.2483C25.6106 66.2319 25.7443 66.2074 25.8589 66.1746C25.979 66.1419 26.0717 66.0928 26.1372 66.0273C26.2082 65.9563 26.2436 65.8527 26.2436 65.7163C26.2436 65.5962 26.2136 65.498 26.1536 65.4216C26.099 65.3452 26.0281 65.2879 25.9408 65.2497C25.8589 65.206 25.7662 65.1788 25.6625 65.1678C25.5588 65.1515 25.4606 65.1433 25.3678 65.1433C25.1059 65.1433 24.8904 65.1979 24.7212 65.307C24.552 65.4161 24.4565 65.5853 24.4347 65.8145H23.5016C23.518 65.5416 23.5835 65.3152 23.6981 65.1351C23.8127 64.955 23.9573 64.8104 24.1319 64.7013C24.3119 64.5922 24.5138 64.5158 24.7376 64.4721C24.9613 64.4285 25.1905 64.4066 25.4251 64.4066C25.6325 64.4066 25.8371 64.4285 26.039 64.4721C26.2409 64.5158 26.421 64.5867 26.5792 64.6849C26.7429 64.7831 26.8739 64.9114 26.9721 65.0696C27.0703 65.2224 27.1194 65.4107 27.1194 65.6344V67.8116ZM26.1863 66.633C26.0445 66.7257 25.8698 66.783 25.6625 66.8049C25.4551 66.8212 25.2478 66.8485 25.0404 66.8867C24.9422 66.9031 24.8467 66.9276 24.7539 66.9604C24.6612 66.9877 24.5793 67.0286 24.5084 67.0832C24.4374 67.1323 24.3802 67.2005 24.3365 67.2878C24.2983 67.3696 24.2792 67.4706 24.2792 67.5906C24.2792 67.6943 24.3092 67.7816 24.3692 67.8526C24.4293 67.9235 24.5002 67.9808 24.5821 68.0245C24.6694 68.0627 24.7621 68.0899 24.8603 68.1063C24.964 68.1227 25.0568 68.1309 25.1386 68.1309C25.2423 68.1309 25.3542 68.1172 25.4742 68.0899C25.5943 68.0627 25.7061 68.0163 25.8098 67.9508C25.919 67.8853 26.009 67.8035 26.0799 67.7052C26.1509 67.6016 26.1863 67.4761 26.1863 67.3287V66.633ZM28.148 62.9088H29.0811V63.7927H28.148V62.9088ZM28.148 64.5212H29.0811V68.7529H28.148V64.5212ZM30.1224 62.9088H31.0555V68.7529H30.1224V62.9088ZM31.6056 64.5212H32.6287L33.7337 67.6807H33.7501L34.8223 64.5212H35.7964L34.1512 68.9821C34.0748 69.1731 33.9984 69.3559 33.922 69.5305C33.851 69.7051 33.761 69.8579 33.6519 69.9889C33.5482 70.1253 33.4172 70.2317 33.259 70.3081C33.1007 70.39 32.8988 70.4309 32.6533 70.4309C32.435 70.4309 32.2195 70.4145 32.0067 70.3818V69.596C32.0831 69.6069 32.1567 69.6178 32.2277 69.6287C32.2986 69.6451 32.3723 69.6533 32.4487 69.6533C32.5578 69.6533 32.6478 69.6397 32.7188 69.6124C32.7897 69.5851 32.847 69.5442 32.8906 69.4896C32.9398 69.4405 32.9807 69.3805 33.0134 69.3095C33.0462 69.2386 33.0762 69.1567 33.1035 69.064L33.2099 68.7366L31.6056 64.5212ZM39.7488 65.3561H41.4185C41.6641 65.3561 41.8687 65.2879 42.0324 65.1515C42.1961 65.0096 42.278 64.8077 42.278 64.5458C42.278 64.2511 42.2043 64.0438 42.057 63.9237C41.9096 63.8037 41.6968 63.7436 41.4185 63.7436H39.7488V65.3561ZM38.7256 62.9088H41.5659C42.0897 62.9088 42.5099 63.0288 42.8264 63.2689C43.1428 63.509 43.3011 63.8719 43.3011 64.3575C43.3011 64.6522 43.2274 64.9059 43.0801 65.1187C42.9382 65.3261 42.7336 65.4871 42.4662 65.6017V65.618C42.8264 65.6944 43.0992 65.8663 43.2847 66.1337C43.4703 66.3956 43.563 66.7257 43.563 67.1241C43.563 67.3533 43.5221 67.5688 43.4402 67.7707C43.3584 67.9672 43.2302 68.139 43.0555 68.2864C42.8809 68.4283 42.6572 68.5428 42.3844 68.6302C42.1115 68.712 41.7868 68.7529 41.4103 68.7529H38.7256V62.9088ZM39.7488 67.918H41.5577C41.8687 67.918 42.1088 67.8389 42.278 67.6807C42.4526 67.517 42.5399 67.2878 42.5399 66.9931C42.5399 66.7039 42.4526 66.4829 42.278 66.3301C42.1088 66.1719 41.8687 66.0928 41.5577 66.0928H39.7488V67.918ZM48.0738 68.7529H47.1571V68.1636H47.1407C47.0262 68.3764 46.8543 68.5483 46.6251 68.6793C46.4014 68.8048 46.1722 68.8675 45.9375 68.8675C45.3809 68.8675 44.9771 68.7311 44.7261 68.4583C44.4806 68.18 44.3578 67.7625 44.3578 67.2059V64.5212H45.2909V67.1159C45.2909 67.487 45.3618 67.7489 45.5037 67.9017C45.6456 68.0545 45.8448 68.1309 46.1012 68.1309C46.2977 68.1309 46.4614 68.1008 46.5923 68.0408C46.7233 67.9808 46.8297 67.9017 46.9116 67.8035C46.9934 67.6998 47.0507 67.577 47.0834 67.4351C47.1216 67.2933 47.1407 67.1405 47.1407 66.9768V64.5212H48.0738V68.7529ZM48.9105 64.5212H52.3483V65.176L49.9255 68.0163H52.471V68.7529H48.7468V68.0981L51.0878 65.2579H48.9105V64.5212ZM53.0031 64.5212H56.4408V65.176L54.018 68.0163H56.5636V68.7529H52.8394V68.0981L55.1803 65.2579H53.0031V64.5212Z" fill="#D06363"/>
</svg>
