<svg width="333" height="166" viewBox="0 0 333 166" fill="none" xmlns="http://www.w3.org/2000/svg">
<rect width="333" height="166" fill="black"/>
<path d="M47.991 70.6859H68.0786V74.4393H60.1895V95.5H55.8453V74.4393H47.991V70.6859ZM70.3992 70.6859H74.3611V79.8956H74.4307C74.9172 79.0847 75.6354 78.4128 76.5854 77.8799C77.5585 77.3238 78.6359 77.0458 79.8175 77.0458C81.7869 77.0458 83.3392 77.5555 84.4745 78.5749C85.6098 79.5944 86.1774 81.1236 86.1774 83.1624V95.5H82.2155V84.205C82.1691 82.7917 81.8679 81.7723 81.3119 81.1467C80.7558 80.498 79.887 80.1736 78.7054 80.1736C78.0335 80.1736 77.4311 80.301 76.8982 80.5559C76.3653 80.7876 75.9135 81.1236 75.5428 81.5638C75.1721 81.9808 74.8825 82.4789 74.6739 83.0582C74.4654 83.6374 74.3611 84.2514 74.3611 84.9001V95.5H70.3992V70.6859ZM102.693 84.9349C102.647 84.3093 102.508 83.7069 102.276 83.1277C102.067 82.5485 101.766 82.0503 101.372 81.6333C101.002 81.1931 100.538 80.8455 99.9822 80.5907C99.4493 80.3126 98.8469 80.1736 98.175 80.1736C97.48 80.1736 96.8428 80.301 96.2636 80.5559C95.7075 80.7876 95.221 81.1236 94.8039 81.5638C94.4101 81.9808 94.0857 82.4789 93.8308 83.0582C93.5991 83.6374 93.4717 84.263 93.4485 84.9349H102.693ZM93.4485 87.5414C93.4485 88.2365 93.5412 88.9084 93.7266 89.5571C93.9351 90.2059 94.2363 90.7735 94.6302 91.26C95.024 91.7466 95.5222 92.1405 96.1246 92.4417C96.727 92.7197 97.4452 92.8587 98.2793 92.8587C99.4378 92.8587 100.365 92.6154 101.06 92.1289C101.778 91.6192 102.311 90.8662 102.658 89.8699H106.412C106.203 90.843 105.844 91.7118 105.334 92.4764C104.825 93.241 104.211 93.8897 103.492 94.4226C102.774 94.9324 101.963 95.3146 101.06 95.5695C100.179 95.8475 99.2524 95.9866 98.2793 95.9866C96.866 95.9866 95.6148 95.7549 94.5259 95.2915C93.4369 94.8281 92.5102 94.1794 91.7456 93.3453C91.0042 92.5112 90.4365 91.5149 90.0427 90.3565C89.672 89.198 89.4866 87.9237 89.4866 86.5335C89.4866 85.2592 89.6835 84.0544 90.0774 82.9192C90.4945 81.7607 91.0737 80.7528 91.8151 79.8956C92.5797 79.0152 93.4949 78.3201 94.5607 77.8104C95.6264 77.3006 96.8312 77.0458 98.175 77.0458C99.5884 77.0458 100.851 77.347 101.963 77.9494C103.098 78.5286 104.037 79.3048 104.778 80.2779C105.52 81.251 106.053 82.3747 106.377 83.649C106.724 84.9001 106.817 86.1976 106.655 87.5414H93.4485ZM119.896 70.6859H130.183C132.083 70.6859 133.728 71.0102 135.118 71.659C136.508 72.3077 137.643 73.1997 138.524 74.335C139.404 75.4471 140.053 76.7562 140.47 78.2622C140.91 79.7682 141.13 81.3784 141.13 83.0929C141.13 84.8074 140.91 86.4177 140.47 87.9237C140.053 89.4297 139.404 90.7503 138.524 91.8856C137.643 92.9977 136.508 93.8782 135.118 94.5269C133.728 95.1756 132.083 95.5 130.183 95.5H119.896V70.6859ZM124.24 91.9551H128.514C130.206 91.9551 131.584 91.735 132.65 91.2948C133.739 90.8314 134.585 90.2059 135.187 89.4181C135.813 88.6072 136.23 87.6688 136.438 86.6031C136.67 85.5141 136.786 84.3441 136.786 83.0929C136.786 81.8418 136.67 80.6833 136.438 79.6176C136.23 78.5286 135.813 77.5903 135.187 76.8025C134.585 75.9916 133.739 75.366 132.65 74.9258C131.584 74.4624 130.206 74.2307 128.514 74.2307H124.24V91.9551ZM159.469 91.5033C159.469 91.9899 159.527 92.3374 159.643 92.5459C159.782 92.7545 160.037 92.8587 160.407 92.8587C160.523 92.8587 160.662 92.8587 160.824 92.8587C160.986 92.8587 161.172 92.8355 161.38 92.7892V95.5348C161.241 95.5811 161.056 95.6274 160.824 95.6738C160.616 95.7433 160.396 95.8012 160.164 95.8475C159.932 95.8939 159.701 95.9286 159.469 95.9518C159.237 95.975 159.04 95.9866 158.878 95.9866C158.067 95.9866 157.395 95.8244 156.862 95.5C156.329 95.1756 155.982 94.608 155.82 93.7971C155.032 94.5616 154.059 95.1177 152.9 95.4652C151.765 95.8128 150.665 95.9866 149.599 95.9866C148.788 95.9866 148.012 95.8707 147.27 95.639C146.529 95.4305 145.869 95.1177 145.289 94.7007C144.733 94.2605 144.282 93.716 143.934 93.0672C143.61 92.3953 143.447 91.6192 143.447 90.7387C143.447 89.6266 143.644 88.723 144.038 88.028C144.455 87.3329 144.988 86.7884 145.637 86.3945C146.309 86.0007 147.05 85.7226 147.861 85.5604C148.695 85.3751 149.529 85.2361 150.363 85.1434C151.082 85.0044 151.765 84.9117 152.414 84.8654C153.063 84.7959 153.63 84.6916 154.117 84.5526C154.627 84.4136 155.02 84.205 155.298 83.927C155.6 83.6258 155.75 83.1856 155.75 82.6064C155.75 82.0967 155.623 81.6796 155.368 81.3552C155.136 81.0309 154.835 80.7876 154.464 80.6254C154.117 80.4401 153.723 80.3242 153.283 80.2779C152.843 80.2084 152.425 80.1736 152.032 80.1736C150.919 80.1736 150.004 80.4053 149.286 80.8687C148.568 81.3321 148.162 82.0503 148.07 83.0234H144.108C144.177 81.865 144.455 80.9034 144.942 80.1389C145.428 79.3743 146.042 78.7603 146.784 78.2969C147.548 77.8335 148.406 77.5092 149.356 77.3238C150.306 77.1385 151.279 77.0458 152.275 77.0458C153.155 77.0458 154.024 77.1385 154.881 77.3238C155.739 77.5092 156.503 77.8104 157.175 78.2274C157.87 78.6445 158.426 79.1889 158.843 79.8608C159.26 80.5096 159.469 81.3089 159.469 82.2588V91.5033ZM155.507 86.4988C154.905 86.8927 154.163 87.1359 153.283 87.2286C152.402 87.2981 151.522 87.414 150.641 87.5762C150.224 87.6457 149.819 87.7499 149.425 87.8889C149.031 88.0048 148.684 88.1786 148.382 88.4102C148.081 88.6188 147.838 88.9084 147.653 89.2791C147.49 89.6266 147.409 90.0553 147.409 90.565C147.409 91.0052 147.537 91.3759 147.792 91.6771C148.047 91.9783 148.348 92.2216 148.695 92.4069C149.066 92.5691 149.46 92.6849 149.877 92.7545C150.317 92.824 150.711 92.8587 151.058 92.8587C151.499 92.8587 151.974 92.8008 152.483 92.6849C152.993 92.5691 153.468 92.3722 153.908 92.0941C154.372 91.8161 154.754 91.4686 155.055 91.0515C155.356 90.6113 155.507 90.0784 155.507 89.4529V86.4988ZM163.836 70.6859H167.798V74.4393H163.836V70.6859ZM163.836 77.5323H167.798V95.5H163.836V77.5323ZM172.219 70.6859H176.181V95.5H172.219V70.6859ZM178.517 77.5323H182.861L187.553 90.9473H187.622L192.175 77.5323H196.311L189.325 96.4731C189.001 97.284 188.677 98.0602 188.352 98.8016C188.051 99.543 187.669 100.192 187.205 100.748C186.765 101.327 186.209 101.779 185.537 102.103C184.865 102.451 184.008 102.625 182.965 102.625C182.039 102.625 181.123 102.555 180.22 102.416V99.0796C180.544 99.126 180.857 99.1723 181.158 99.2186C181.459 99.2882 181.772 99.3229 182.097 99.3229C182.56 99.3229 182.942 99.265 183.243 99.1491C183.545 99.0333 183.788 98.8595 183.973 98.6278C184.182 98.4193 184.356 98.1645 184.495 97.8633C184.634 97.5621 184.761 97.2145 184.877 96.8206L185.329 95.4305L178.517 77.5323ZM213.092 81.0772H220.182C221.225 81.0772 222.094 80.7876 222.789 80.2084C223.484 79.606 223.831 78.7487 223.831 77.6366C223.831 76.3855 223.519 75.505 222.893 74.9953C222.267 74.4856 221.364 74.2307 220.182 74.2307H213.092V81.0772ZM208.748 70.6859H220.808C223.032 70.6859 224.816 71.1956 226.16 72.215C227.504 73.2345 228.176 74.7752 228.176 76.8373C228.176 78.0884 227.863 79.1658 227.237 80.0694C226.635 80.9498 225.766 81.6333 224.631 82.1198V82.1893C226.16 82.5137 227.318 83.2435 228.106 84.3788C228.894 85.4909 229.288 86.8927 229.288 88.584C229.288 89.5571 229.114 90.4723 228.766 91.3296C228.419 92.1636 227.874 92.8935 227.133 93.519C226.392 94.1214 225.442 94.608 224.283 94.9787C223.125 95.3262 221.746 95.5 220.147 95.5H208.748V70.6859ZM213.092 91.9551H220.773C222.094 91.9551 223.113 91.6192 223.831 90.9473C224.573 90.2522 224.944 89.2791 224.944 88.028C224.944 86.8 224.573 85.8616 223.831 85.2129C223.113 84.541 222.094 84.205 220.773 84.205H213.092V91.9551ZM248.441 95.5H244.548V92.9977H244.479C243.992 93.9013 243.262 94.6312 242.289 95.1872C241.339 95.7201 240.366 95.9866 239.37 95.9866C237.007 95.9866 235.292 95.4073 234.226 94.2489C233.184 93.0672 232.662 91.2948 232.662 88.9315V77.5323H236.624V88.5493C236.624 90.1248 236.925 91.2369 237.528 91.8856C238.13 92.5344 238.976 92.8587 240.065 92.8587C240.899 92.8587 241.594 92.7313 242.15 92.4764C242.706 92.2216 243.158 91.8856 243.506 91.4686C243.853 91.0284 244.096 90.5071 244.235 89.9047C244.398 89.3023 244.479 88.6535 244.479 87.9584V77.5323H248.441V95.5ZM251.993 77.5323H266.59V80.3126L256.303 92.3722H267.111V95.5H251.298V92.7197L261.238 80.6602H251.993V77.5323ZM269.37 77.5323H283.966V80.3126L273.679 92.3722H284.488V95.5H268.675V92.7197L278.614 80.6602H269.37V77.5323Z" fill="#D06363"/>
</svg>
