<svg width="97" height="197" viewBox="0 0 97 197" fill="none" xmlns="http://www.w3.org/2000/svg">
<mask id="path-1-inside-1_152_82" fill="white">
<path fill-rule="evenodd" clip-rule="evenodd" d="M0.572266 111.348H36.6418C67.1395 111.348 91.8628 86.6245 91.8628 56.1269C91.8628 25.6292 67.1395 0.905884 36.6418 0.905884H0.572266V111.348Z"/>
</mask>
<path d="M0.572266 111.348H-7.6209V119.541H0.572266V111.348ZM0.572266 0.905884V-7.28729H-7.6209V0.905884H0.572266ZM36.6418 103.155H0.572266V119.541H36.6418V103.155ZM83.6696 56.1269C83.6696 82.0996 62.6146 103.155 36.6418 103.155V119.541C71.6645 119.541 100.056 91.1495 100.056 56.1269H83.6696ZM36.6418 9.09905C62.6145 9.09905 83.6696 30.1541 83.6696 56.1269H100.056C100.056 21.1042 71.6644 -7.28729 36.6418 -7.28729V9.09905ZM0.572266 9.09905H36.6418V-7.28729H0.572266V9.09905ZM-7.6209 0.905884V111.348H8.76544V0.905884H-7.6209Z" fill="#D06363" mask="url(#path-1-inside-1_152_82)"/>
<rect x="2.61956" y="113.395" width="4.09459" height="77.7735" stroke="#D06363" stroke-width="4.09459"/>
<rect x="7.84044" y="112.097" width="2.64963" height="82.697" transform="rotate(-90 7.84044 112.097)" stroke="#D06363" stroke-width="2.64963"/>
<rect x="7.84044" y="4.88027" width="2.64963" height="82.697" transform="rotate(-90 7.84044 4.88027)" stroke="#D06363" stroke-width="2.64963"/>
<path d="M11.9863 186.312H17.2239V187.923H11.9863V186.312ZM12.1368 190.827H18.0818V192.468H10.1802V181.933H17.8711V183.573H12.1368V190.827ZM22.1166 192.468L18.67 184.431H20.6266L23.5916 191.52H22.6284L25.6987 184.431H27.5048L24.0582 192.468H22.1166ZM32.2378 192.573C31.3448 192.573 30.5622 192.398 29.8899 192.047C29.2277 191.685 28.711 191.194 28.3397 190.572C27.9785 189.95 27.7979 189.242 27.7979 188.449C27.7979 187.647 27.9735 186.939 28.3247 186.327C28.6859 185.705 29.1775 185.219 29.7996 184.867C30.4318 184.516 31.1492 184.341 31.9519 184.341C32.7345 184.341 33.4319 184.511 34.0439 184.852C34.656 185.194 35.1376 185.675 35.4888 186.297C35.84 186.919 36.0156 187.652 36.0156 188.495C36.0156 188.575 36.0105 188.665 36.0005 188.766C36.0005 188.866 35.9955 188.961 35.9854 189.052H29.2879V187.802H34.9921L34.2546 188.194C34.2647 187.732 34.1693 187.326 33.9687 186.975C33.768 186.623 33.4921 186.347 33.1409 186.147C32.7997 185.946 32.4034 185.846 31.9519 185.846C31.4903 185.846 31.084 185.946 30.7328 186.147C30.3916 186.347 30.1207 186.628 29.92 186.99C29.7294 187.341 29.6341 187.757 29.6341 188.239V188.54C29.6341 189.021 29.7445 189.448 29.9652 189.819C30.1859 190.19 30.497 190.476 30.8983 190.677C31.2997 190.878 31.7612 190.978 32.283 190.978C32.7345 190.978 33.1409 190.908 33.5021 190.767C33.8633 190.627 34.1844 190.406 34.4653 190.105L35.4737 191.264C35.1125 191.685 34.656 192.011 34.1041 192.242C33.5623 192.463 32.9402 192.573 32.2378 192.573ZM42.383 184.341C43.0252 184.341 43.5971 184.466 44.0988 184.717C44.6105 184.968 45.0119 185.354 45.3029 185.876C45.5938 186.388 45.7393 187.05 45.7393 187.863V192.468H43.858V188.103C43.858 187.391 43.6874 186.859 43.3463 186.508C43.0152 186.157 42.5486 185.981 41.9466 185.981C41.5051 185.981 41.1138 186.071 40.7726 186.252C40.4315 186.433 40.1656 186.704 39.9749 187.065C39.7943 187.416 39.704 187.863 39.704 188.404V192.468H37.8227V184.431H39.6137V186.598L39.2976 185.936C39.5786 185.424 39.985 185.033 40.5167 184.762C41.0586 184.481 41.6807 184.341 42.383 184.341ZM51.1511 192.573C50.2681 192.573 49.5858 192.348 49.1042 191.896C48.6226 191.435 48.3818 190.757 48.3818 189.864V182.655H50.2631V189.819C50.2631 190.2 50.3584 190.496 50.5491 190.707C50.7497 190.918 51.0257 191.023 51.3768 191.023C51.7983 191.023 52.1494 190.913 52.4304 190.692L52.9572 192.032C52.7364 192.212 52.4655 192.348 52.1444 192.438C51.8233 192.528 51.4922 192.573 51.1511 192.573ZM47.0573 185.996V184.491H52.4153V185.996H47.0573ZM54.6854 192.468V181.933H59.02C59.9531 181.933 60.7508 182.083 61.413 182.384C62.0853 182.685 62.602 183.117 62.9632 183.678C63.3245 184.24 63.5051 184.908 63.5051 185.68C63.5051 186.453 63.3245 187.12 62.9632 187.682C62.602 188.244 62.0853 188.675 61.413 188.976C60.7508 189.277 59.9531 189.428 59.02 189.428H55.769L56.642 188.51V192.468H54.6854ZM56.642 188.72L55.769 187.772H58.9297C59.7926 187.772 60.4398 187.592 60.8712 187.23C61.3127 186.859 61.5334 186.342 61.5334 185.68C61.5334 185.008 61.3127 184.491 60.8712 184.13C60.4398 183.769 59.7926 183.588 58.9297 183.588H55.769L56.642 182.625V188.72ZM68.8268 192.573C68.1445 192.573 67.5424 192.448 67.0207 192.197C66.4989 191.936 66.0926 191.545 65.8016 191.023C65.5106 190.491 65.3651 189.824 65.3651 189.021V184.431H67.2464V188.766C67.2464 189.488 67.407 190.03 67.7281 190.391C68.0592 190.742 68.5257 190.918 69.1278 190.918C69.5693 190.918 69.9505 190.827 70.2716 190.647C70.6027 190.466 70.8586 190.195 71.0392 189.834C71.2298 189.473 71.3252 189.026 71.3252 188.495V184.431H73.2065V192.468H71.4155V190.301L71.7315 190.963C71.4606 191.485 71.0643 191.886 70.5425 192.167C70.0208 192.438 69.4489 192.573 68.8268 192.573ZM75.6697 192.468V181.3H77.5511V192.468H75.6697ZM82.5037 192.573C81.8314 192.573 81.1842 192.488 80.5621 192.318C79.9501 192.137 79.4634 191.921 79.1022 191.67L79.8247 190.241C80.1859 190.471 80.6173 190.662 81.119 190.812C81.6207 190.963 82.1224 191.038 82.6241 191.038C83.2161 191.038 83.6425 190.958 83.9034 190.797C84.1743 190.637 84.3097 190.421 84.3097 190.15C84.3097 189.929 84.2194 189.764 84.0388 189.654C83.8582 189.533 83.6224 189.443 83.3315 189.383C83.0405 189.322 82.7144 189.267 82.3532 189.217C82.002 189.167 81.6458 189.102 81.2846 189.021C80.9334 188.931 80.6123 188.806 80.3213 188.645C80.0303 188.475 79.7946 188.249 79.6139 187.968C79.4333 187.687 79.343 187.316 79.343 186.854C79.343 186.342 79.4885 185.901 79.7795 185.53C80.0705 185.148 80.4769 184.857 80.9986 184.657C81.5304 184.446 82.1575 184.341 82.8799 184.341C83.4218 184.341 83.9686 184.401 84.5205 184.521C85.0723 184.642 85.5288 184.812 85.8901 185.033L85.1676 186.463C84.7864 186.232 84.4001 186.077 84.0087 185.996C83.6275 185.906 83.2462 185.861 82.8649 185.861C82.293 185.861 81.8665 185.946 81.5856 186.117C81.3147 186.287 81.1792 186.503 81.1792 186.764C81.1792 187.005 81.2695 187.185 81.4501 187.306C81.6307 187.426 81.8665 187.521 82.1575 187.592C82.4485 187.662 82.7696 187.722 83.1207 187.772C83.482 187.812 83.8382 187.878 84.1893 187.968C84.5405 188.058 84.8616 188.184 85.1526 188.344C85.4536 188.495 85.6944 188.71 85.875 188.991C86.0556 189.272 86.1459 189.638 86.1459 190.09C86.1459 190.592 85.9954 191.028 85.6944 191.399C85.4034 191.771 84.987 192.062 84.4452 192.272C83.9034 192.473 83.2562 192.573 82.5037 192.573ZM91.5438 192.573C90.6508 192.573 89.8682 192.398 89.1959 192.047C88.5337 191.685 88.0169 191.194 87.6457 190.572C87.2845 189.95 87.1039 189.242 87.1039 188.449C87.1039 187.647 87.2795 186.939 87.6306 186.327C87.9919 185.705 88.4835 185.219 89.1056 184.867C89.7377 184.516 90.4552 184.341 91.2579 184.341C92.0405 184.341 92.7378 184.511 93.3499 184.852C93.9619 185.194 94.4436 185.675 94.7948 186.297C95.1459 186.919 95.3215 187.652 95.3215 188.495C95.3215 188.575 95.3165 188.665 95.3065 188.766C95.3065 188.866 95.3015 188.961 95.2914 189.052H88.5939V187.802H94.2981L93.5606 188.194C93.5706 187.732 93.4753 187.326 93.2746 186.975C93.074 186.623 92.798 186.347 92.4469 186.147C92.1057 185.946 91.7094 185.846 91.2579 185.846C90.7963 185.846 90.3899 185.946 90.0388 186.147C89.6976 186.347 89.4267 186.628 89.226 186.99C89.0354 187.341 88.9401 187.757 88.9401 188.239V188.54C88.9401 189.021 89.0504 189.448 89.2712 189.819C89.4919 190.19 89.803 190.476 90.2043 190.677C90.6057 190.878 91.0672 190.978 91.589 190.978C92.0405 190.978 92.4469 190.908 92.8081 190.767C93.1693 190.627 93.4904 190.406 93.7713 190.105L94.7797 191.264C94.4185 191.685 93.962 192.011 93.4101 192.242C92.8683 192.463 92.2462 192.573 91.5438 192.573Z" fill="#D06363"/>
</svg>
