<svg width="115" height="115" viewBox="0 0 115 115" fill="none" xmlns="http://www.w3.org/2000/svg">
<path d="M114.78 57.3899C114.78 25.7681 89.0118 0 57.3899 0C25.7681 0 0 25.7681 0 57.3899C0 74.033 7.17374 89.0118 18.5369 99.5141C18.5369 99.5715 18.5369 99.5715 18.4796 99.6289C19.0534 100.203 19.7421 100.662 20.316 101.178C20.6604 101.465 20.9473 101.752 21.2917 101.982C22.3247 102.843 23.4725 103.646 24.5629 104.45C24.9646 104.737 25.309 104.966 25.7107 105.253C26.8011 105.999 27.9489 106.688 29.1541 107.319C29.5558 107.549 30.0149 107.836 30.4167 108.065C31.5645 108.696 32.7696 109.27 34.0322 109.787C34.4913 110.016 34.9505 110.246 35.4096 110.418C36.6722 110.935 37.9347 111.394 39.1973 111.796C39.6564 111.968 40.1155 112.14 40.5747 112.255C41.952 112.656 43.3294 113.001 44.7067 113.345C45.1085 113.46 45.5102 113.575 45.9693 113.632C47.5762 113.976 49.1832 114.206 50.8475 114.378C51.077 114.378 51.3066 114.435 51.5361 114.493C53.4874 114.665 55.4387 114.78 57.3899 114.78C59.3412 114.78 61.2924 114.665 63.1863 114.493C63.4159 114.493 63.6454 114.435 63.875 114.378C65.5393 114.206 67.1462 113.976 68.7531 113.632C69.1548 113.575 69.5566 113.402 70.0157 113.345C71.3931 113.001 72.8278 112.714 74.1478 112.255C74.6069 112.082 75.066 111.91 75.5251 111.796C76.7877 111.336 78.1077 110.935 79.3129 110.418C79.772 110.246 80.2311 110.016 80.6902 109.787C81.8954 109.27 83.1006 108.696 84.3058 108.065C84.7649 107.836 85.1666 107.549 85.5684 107.319C86.7162 106.63 87.864 105.999 89.0118 105.253C89.4135 105.024 89.7578 104.737 90.1595 104.45C91.3073 103.646 92.3978 102.843 93.4308 101.982C93.7751 101.695 94.0621 101.408 94.4064 101.178C95.0377 100.662 95.669 100.145 96.2429 99.6289C96.2429 99.5715 96.2429 99.5715 96.1855 99.5141C107.606 89.0118 114.78 74.033 114.78 57.3899ZM85.7405 85.9127C70.1879 75.4677 44.7067 75.4677 29.0393 85.9127C26.5141 87.577 24.4481 89.5283 22.7264 91.6517C14.0031 82.8136 8.60849 70.7044 8.60849 57.3899C8.60849 30.474 30.474 8.60849 57.3899 8.60849C84.3058 8.60849 106.171 30.474 106.171 57.3899C106.171 70.7044 100.777 82.8136 92.0534 91.6517C90.3891 89.5283 88.2657 87.577 85.7405 85.9127Z" fill="black"/>
<path d="M57.3899 28.2915C45.5102 28.2915 35.8687 37.933 35.8687 49.8128C35.8687 61.4629 44.9936 70.9323 57.1029 71.2766H57.6194H58.0212H58.1359C69.7287 70.8749 78.8537 61.4629 78.9111 49.8128C78.9111 37.933 69.2696 28.2915 57.3899 28.2915Z" fill="black"/>
</svg>
